<?xml version="1.0" encoding="UTF-8"?>
<!DOCTYPE svg PUBLIC "-//W3C//DTD SVG 1.1//EN" "http://www.w3.org/Graphics/SVG/1.1/DTD/svg11.dtd">
<svg xmlns="http://www.w3.org/2000/svg" version="1.1" width="662px" height="667px" style="shape-rendering:geometricPrecision; text-rendering:geometricPrecision; image-rendering:optimizeQuality; fill-rule:evenodd; clip-rule:evenodd" xmlns:xlink="http://www.w3.org/1999/xlink">
<g><path style="opacity:0.963" fill="#3d9e9e" d="M 331.5,36.5 C 354.647,78.7881 377.314,121.455 399.5,164.5C 395.553,164.193 391.553,164.193 387.5,164.5C 385.189,161.233 382.856,157.9 380.5,154.5C 382.5,153.167 384.5,151.833 386.5,150.5C 377.437,132.975 368.103,116.309 358.5,100.5C 361.453,107.285 362.619,114.285 362,121.5C 365.667,123.833 368.667,126.833 371,130.5C 371.534,134.859 371.368,139.192 370.5,143.5C 362.231,143.52 354.231,145.02 346.5,148C 343.213,149.467 340.546,151.634 338.5,154.5C 337.883,154.389 337.383,154.056 337,153.5C 336.833,128.827 336.333,104.16 335.5,79.5C 334.145,78.8118 333.145,77.8118 332.5,76.5C 332.217,75.7109 331.717,75.0442 331,74.5C 330.556,61.8274 330.722,49.1608 331.5,36.5 Z"/></g>
<g><path style="opacity:0.963" fill="#025656" d="M 331.5,36.5 C 330.722,49.1608 330.556,61.8274 331,74.5C 331.717,75.0442 332.217,75.7109 332.5,76.5C 330.606,77.0476 328.94,78.0476 327.5,79.5C 326.667,104.16 326.167,128.827 326,153.5C 321.833,158.333 317.667,163.167 313.5,168C 296.978,173.512 280.311,178.179 263.5,182C 268.467,177.2 272.467,171.7 275.5,165.5C 274.562,164.447 273.395,163.78 272,163.5C 269.135,164.776 266.301,165.11 263.5,164.5C 285.686,121.455 308.353,78.7881 331.5,36.5 Z"/></g>
<g><path style="opacity:1" fill="#098383" d="M 387.5,164.5 C 391.67,170.178 395.67,176.011 399.5,182C 382.689,178.179 366.022,173.512 349.5,168C 345.621,163.626 341.954,159.126 338.5,154.5C 340.546,151.634 343.213,149.467 346.5,148C 354.231,145.02 362.231,143.52 370.5,143.5C 371.368,139.192 371.534,134.859 371,130.5C 368.667,126.833 365.667,123.833 362,121.5C 362.619,114.285 361.453,107.285 358.5,100.5C 368.103,116.309 377.437,132.975 386.5,150.5C 384.5,151.833 382.5,153.167 380.5,154.5C 382.856,157.9 385.189,161.233 387.5,164.5 Z"/></g>
<g><path style="opacity:0.978" fill="#025655" d="M 333.5,178.5 C 333.5,320.5 333.5,462.5 333.5,604.5C 333.5,605.5 333.5,606.5 333.5,607.5C 255.438,605.234 196.272,570.901 156,504.5C 129.136,454.249 123.136,401.582 138,346.5C 157.901,283.931 198.068,239.764 258.5,214C 275.014,207.788 292.014,203.621 309.5,201.5C 307.013,215.603 304.013,229.603 300.5,243.5C 239.727,259.109 198.894,296.443 178,355.5C 162.016,413.884 173.35,466.217 212,512.5C 225.614,526.79 240.947,538.79 258,548.5C 282.999,425.003 308.166,301.669 333.5,178.5 Z"/></g>
<g><path style="opacity:0.984" fill="#3e9f9f" d="M 333.5,178.5 C 358.989,301.611 383.989,424.944 408.5,548.5C 408.586,549.496 408.252,550.329 407.5,551C 384.456,562.514 363.122,576.514 343.5,593C 340.302,597.026 336.968,600.859 333.5,604.5C 333.5,462.5 333.5,320.5 333.5,178.5 Z"/></g>
<g><path style="opacity:0.971" fill="#0a8686" d="M 333.5,607.5 C 333.5,606.5 333.5,605.5 333.5,604.5C 336.968,600.859 340.302,597.026 343.5,593C 363.122,576.514 384.456,562.514 407.5,551C 408.252,550.329 408.586,549.496 408.5,548.5C 464.562,516.76 493.895,468.427 496.5,403.5C 493.01,334.309 460.343,284.476 398.5,254C 387.984,249.995 377.318,246.495 366.5,243.5C 362.987,229.603 359.987,215.603 357.5,201.5C 432.885,212.926 487.051,252.926 520,321.5C 538.57,367.132 541.57,413.799 529,461.5C 509.099,524.069 468.932,568.236 408.5,594C 384.384,603.464 359.384,607.964 333.5,607.5 Z"/></g>
<g><path style="opacity:0.925" fill="#035655" d="M 288.5,265.5 C 290.833,265.5 293.167,265.5 295.5,265.5C 278.655,338.887 261.489,412.22 244,485.5C 250.003,416.135 256.67,346.802 264,277.5C 265.409,273.523 268.242,271.023 272.5,270C 277.956,268.473 283.289,266.973 288.5,265.5 Z"/></g>
<g><path style="opacity:0.925" fill="#3fa09f" d="M 370.5,265.5 C 380.698,265.966 390.364,268.466 399.5,273C 400.893,274.171 401.727,275.671 402,277.5C 409.33,346.802 415.997,416.135 422,485.5C 404.511,412.22 387.345,338.887 370.5,265.5 Z"/></g>
<g><path style="opacity:1" fill="#0c8686" d="M 359.5,361.5 C 361.669,373.437 364.169,385.437 367,397.5C 366.784,408.423 369.118,418.756 374,428.5C 374.953,438.64 376.286,448.64 378,458.5C 379.667,462.5 381.333,466.5 383,470.5C 383.313,477.868 383.98,485.201 385,492.5C 389.189,508.965 391.856,525.632 393,542.5C 379,553.833 365,565.167 351,576.5C 359.103,563.346 367.769,550.346 377,537.5C 379.957,531.701 380.29,525.701 378,519.5C 372.457,509.871 369.124,499.538 368,488.5C 368.266,480.68 368.766,472.846 369.5,465C 369.301,457.812 368.801,450.646 368,443.5C 366.164,437.309 365.164,430.975 365,424.5C 361.686,419.217 359.52,413.551 358.5,407.5C 359.12,401.995 359.786,396.495 360.5,391C 358.941,384.929 357.941,378.763 357.5,372.5C 357.366,368.64 358.033,364.973 359.5,361.5 Z"/></g>
</svg>
